<svg height="45" width="46" xmlns="http://www.w3.org/2000/svg"><path d="m44.079 39.026c-.026.285-.204.515-.446.634v3.645c0 .44-.356.796-.796.796h-5.68c-.44 0-.795-.356-.795-.796v-3.645c-.242-.119-.421-.35-.447-.632-.007-.092-.854-9.223-1.808-18.608-.023-.215.044-.43.185-.595.141-.166.342-.266.559-.28.022-.001 2.313-.138 4.835-.138h.62c2.523 0 4.814.137 4.836.138.217.013.419.114.561.28.139.165.206.381.185.597-.931 9.009-1.8 18.509-1.809 18.604zm-6.126 3.483h4.087v-2.76h-4.087zm2.353-21.509h-.62c-1.564 0-3.034.052-3.912.092.767 7.571 1.447 14.805 1.659 17.065h5.126c.213-2.305.907-9.746 1.658-17.065-.877-.04-2.349-.092-3.911-.092zm-10.656 23.1h-11.232c-2.248 0-3.194-2.279-3.378-3.482-.007-.04-.01-.08-.01-.121v-23.325c0-2.894 3.548-5.678 4.879-6.621v-3.241c0-.44.355-.796.796-.796h1.724v-1.216h-1.724c-.441 0-.796-.357-.796-.796v-.552h-2.876c-.238 0-.466-.108-.616-.294l-.646-.791c-.186-.227-.231-.537-.119-.808s.364-.459.656-.487l3.622-.363c.02-.118.058-.235.128-.334.062-.086.635-.838 1.908-.838h4.139c1.272 0 1.846.753 1.908.838.097.135.148.297.148.463v3.166c0 .439-.355.796-.796.796h-1.724v1.216h1.724c.441 0 .796.356.796.796v3.243c1.332.943 4.879 3.727 4.878 6.619v23.325c0 .04-.003.081-.009.121-.185 1.203-1.131 3.482-3.38 3.482zm-3.081-40.394v-1.993c-.099-.044-.251-.087-.464-.087h-4.139c-.211 0-.363.043-.465.088v.215 1.224.553h1.724 1.62zm-2.547 1.592v1.144h.027v-1.144zm2.547 2.808h-1.724c-.115 0-.223-.027-.322-.072h-.975c-.099.045-.206.072-.323.072h-1.724v2.008h5.068zm4.879 9.066c0-2.027-3.022-4.515-4.414-5.467h-5.998c-1.392.955-4.413 3.446-4.413 5.467v23.254c.064.318.477 2.082 1.796 2.082h11.232c1.333 0 1.732-1.741 1.797-2.08zm-20.664 26.929h-6.878c-2.259 0-2.942-1.931-2.989-2.952l-.001-11.412c0-1.346.747-3.905 3.439-4.767v-3.977c-.029-.3-.053-1.097.385-1.586.223-.248.531-.386.868-.386h3.533c.29 0 .563.119.766.334.422.445.446 1.22.423 1.641l.002 3.973c2.691.862 3.438 3.421 3.44 4.768v11.374c-.048 1.059-.732 2.99-2.988 2.99zm-2.044-23.149c.005-.115.002-.236-.006-.341v.002h-2.798c-.005.088-.003.184.005.253.003.029.005.058.005.086v3.803h2.794zm3.438 8.785c-.001-.114-.063-2.865-2.835-3.384h-4c-2.774.52-2.835 3.271-2.836 3.388v11.37c.014.199.151 1.398 1.398 1.398h3.6 3.277c1.294 0 1.39-1.286 1.397-1.433z" fill="#fcd139" fill-rule="evenodd"/></svg>