<svg height="44" width="42" xmlns="http://www.w3.org/2000/svg"><path d="m41.628 42.877-3.175-29.602c-.047-.409-.384-.717-.787-.717h-8.571v-3.523c0-4.444-3.563-8.06-7.947-8.06-4.384.002-7.948 3.619-7.948 8.06v3.521h-8.571c-.408 0-.747.308-.792.719l-3.186 29.752c-.019.232.05.451.195.61.149.173.365.271.597.271h39.425c.437 0 .79-.358.79-.803 0-.063-.002-.145-.03-.228zm-27.633-22.222c-.519 0-.939-.431-.939-.955 0-.525.422-.953.939-.953s.942.426.942.953-.425.955-.942.955zm-.792-3.383c-1.032.347-1.732 1.319-1.732 2.428 0 1.414 1.134 2.565 2.524 2.565 1.395 0 2.529-1.153 2.529-2.565 0-1.109-.705-2.081-1.737-2.428v-3.104h12.723v3.104c-1.032.347-1.732 1.319-1.732 2.428 0 1.414 1.134 2.565 2.527 2.565 1.392 0 2.522-1.153 2.522-2.565 0-1.109-.703-2.081-1.732-2.428v-3.104h7.859l3.02 28.133h-37.653l3.018-28.133h7.861v3.104zm15.102 3.383c-.522 0-.947-.431-.947-.955 0-.525.427-.953.947-.953.517 0 .939.428.939.953 0 .524-.422.955-.939.955zm-7.157-18.071c3.508 0 6.362 2.895 6.362 6.454v3.52h-12.723v-3.523c0-3.553 2.854-6.448 6.361-6.451z" fill="#fcd139" fill-rule="evenodd"/></svg>