<svg height="11" width="12" xmlns="http://www.w3.org/2000/svg"><path d="m.836 10.508c-.176-.177-.178-.459-.005-.632l3.887-3.887-2.468-2.468c-.111-.111-.158-.271-.123-.422.037-.15.148-.271.296-.317l8.103-2.53c.156-.049.329-.007.449.109l.003.004c.116.116.161.287.116.444l-2.374 8.257c-.044.15-.164.265-.316.303s-.315-.009-.426-.12l-1.089-1.088c-.176-.177-.179-.459-.006-.632s.455-.171.631.006l.554.553 1.936-6.734-6.607 2.063 2.265 2.265c.175.176.178.458.005.63l-4.2 4.201c-.173.172-.455.17-.631-.005" fill="#1c294b" fill-rule="evenodd"/></svg>