<svg height="16" viewBox="0 0 12 16" width="12" xmlns="http://www.w3.org/2000/svg"><path d="m254.192 157.319v-1.972a4.088 4.088 0 1 0 -8.161-.02v1.973h-2.031v8.234l.282.161a11.994 11.994 0 0 0 5.839 1.305 10.436 10.436 0 0 0 5.635-1.329l.245-.181v-8.173h-1.809zm-7.068-1.992a2.993 2.993 0 1 1 5.975 0v1.973h-5.975v-1.972zm7.784 9.541a10.417 10.417 0 0 1 -4.787 1.007 11.61 11.61 0 0 1 -5.032-1.026v-6.382h9.838v6.4h-.019zm-4.09-4.308a.718.718 0 1 0 -1.432 0 .77.77 0 0 0 .245.564l-.566 2.98h2.111l-.565-2.98a.82.82 0 0 0 .207-.564z" fill="#1c294b" fill-rule="evenodd" transform="translate(-244 -151)"/></svg>