<svg height="44" width="52" xmlns="http://www.w3.org/2000/svg"><path d="m51.105 21.679c-.007.3-.175.573-.441.713l-2.104 1.113 2.134 1.247c.26.151.416.43.411.73-.007.3-.175.572-.44.713l-32.894 17.446c-.404.231-.848.346-1.284.346-.462 0-.915-.129-1.305-.388l-14.712-8.742c-.257-.152-.411-.431-.404-.729.006-.298.173-.569.436-.71l2.076-1.111-2.108-1.253c-.257-.153-.411-.432-.404-.729.006-.298.173-.569.436-.711l2.076-1.111-2.108-1.252c-.257-.153-.411-.431-.404-.729.006-.298.173-.57.436-.711l2.076-1.111-2.108-1.253c-.257-.152-.411-.431-.404-.729.006-.298.173-.57.437-.711l19.968-10.666c.004-.002.008-.004.012-.006.67-.344 1.333-.707 1.987-1.088 4.604-2.678 8.772-6.216 11.657-9.928.256-.33.72-.419 1.08-.203l15.495 9.261c.203.121.344.324.388.557.044.232-.014.472-.159.659-.533.686-1.128 1.366-1.749 2.041-.099.107-.2.212-.3.318-.619.658-1.272 1.307-1.963 1.945l3.782 2.251c.257.153.411.432.404.731-.008.298-.177.57-.441.71l-2.104 1.112 2.134 1.247c.26.151.417.431.411.731zm-13.92 9.793 11.391-6.042-1.738-1.015-9.653 5.103zm-5.966 3.164 4.309-2.285v-10.549l-14.76-8.744-4.236 2.263 14.29 8.694c.247.15.397.417.397.706zm-28.643-.452 13.49 8.017c.269.177.6.166.905-.008l12.591-6.678v-1.897l-11.793 6.22c-.402.231-.846.346-1.282.346-.461 0-.915-.129-1.304-.389l-10.943-6.501zm0-3.803 1.942 1.154c.126.036.237.107.335.199l11.213 6.663c.268.179.602.166.905-.007l12.591-6.644v-1.932l-11.793 6.221c-.402.23-.846.345-1.282.345-.461 0-.915-.129-1.305-.388l-10.942-6.502zm0-3.803 1.942 1.154c.126.036.237.107.334.198l11.214 6.663c.269.178.6.166.905-.007l12.591-6.643v-1.775l-11.796 6.148c-.417.18-.835.267-1.235.267-.494 0-.957-.134-1.349-.394l-10.943-6.502zm1.942-2.65c.126.036.237.107.335.199l11.213 6.663c.273.18.638.184.99.034l11.725-6.114-13.945-8.483-12.258 6.548zm30.461-22.021c-.411.505-.846 1.005-1.3 1.5-.196.214-.407.423-.611.636-.261.272-.518.545-.79.813-.285.28-.585.554-.882.829-.202.187-.399.376-.605.56-.36.321-.732.633-1.106.946-.151.126-.299.253-.453.378-.427.347-.864.684-1.307 1.019-.104.078-.206.157-.31.234-.488.362-.985.713-1.489 1.057-.06.041-.12.083-.181.124-.54.365-1.088.718-1.643 1.06-.025.015-.05.03-.075.046-.582.357-1.17.7-1.765 1.03l13.907 8.238c2.495-1.347 4.878-2.923 7.027-4.63.046-.036.088-.074.133-.11.488-.39.965-.785 1.427-1.188.117-.102.225-.208.341-.311.383-.341.764-.684 1.126-1.032.214-.207.412-.418.619-.627.25-.252.507-.502.745-.756.437-.468.855-.94 1.249-1.415zm13.608 15.909-2.97-1.768c-.625.531-1.269 1.051-1.935 1.56-.011.009-.023.018-.034.027-.649.494-1.313.976-1.996 1.444-.031.021-.061.043-.092.064-.672.459-1.356.902-2.055 1.331-.036.022-.072.045-.108.068-.727.443-1.463.868-2.212 1.273v2.028zm-1.749 2.796-9.653 5.102v1.933l11.39-6.021z" fill="#6cc1bd" fill-rule="evenodd"/></svg>