<svg height="48" width="41" xmlns="http://www.w3.org/2000/svg"><path d="m26.683 0v5.714h-6.67-1.112v1.143 13.141h-14.452-1.112v1.143 24.569h-3.335v2.286h40.022v-2.286h-3.335v-38.853-1.143h-1.112-6.67v-5.714zm-5.559 7.999h13.341v37.711h-13.341zm2.224 2.286v2.285h8.894v-2.285zm0 4.571v2.286h8.894v-2.286zm0 4.571v2.286h8.894v-2.286zm-17.788 2.857h13.341v23.426h-13.341zm17.788 1.714v2.286h8.894v-2.286zm-15.564.571v2.286h8.894v-2.286zm0 4.572v2.285h8.894v-2.285zm0 4.57v2.286h8.894v-2.286z" fill="#6cc1bd" fill-rule="evenodd"/></svg>