<svg height="18" viewBox="0 0 15 18" width="15" xmlns="http://www.w3.org/2000/svg"><path d="m37.621 2674.99a.447.447 0 0 1 .449.44v5.16h3.478a.454.454 0 0 1 .384.21.436.436 0 0 1 .015.43l-3.928 7.52a.435.435 0 0 1 -.393.24h-.005a.454.454 0 0 1 -.394-.23l-4.146-7.52a.448.448 0 0 1 .008-.44.455.455 0 0 1 .385-.21h1.536a.44.44 0 0 1 .449.44.446.446 0 0 1 -.449.44h-.78l3.381 6.13 3.2-6.13h-3.19a.446.446 0 0 1 -.448-.44v-5.6a.446.446 0 0 1 .448-.44m-7.621 14.01h1v4h-1zm14 0h1v4h-1zm-14 4v-1h15v1z" fill="#1c294b" fill-rule="evenodd" transform="translate(-30 -2675)"/></svg>