<svg height="20" width="20" xmlns="http://www.w3.org/2000/svg"><path d="m15.636 19.974v-7.445c0-1.73-.591-2.911-2.068-2.911-1.127 0-1.797.796-2.093 1.566-.107.275-.134.659-.134 1.043v7.747h-4.08v-9.148c0-1.675-.054-3.076-.107-4.285h3.542l.189 1.868h.08c.537-.88 1.852-2.17 4.054-2.17 2.684 0 4.697 1.841 4.697 5.796v7.939zm-12.884-15.081c-1.289 0-2.12-.934-2.12-2.087 0-1.182.859-2.088 2.173-2.088 1.316 0 2.121.906 2.148 2.088 0 1.153-.832 2.087-2.201 2.087zm2.067 15.081h-4.08v-13.433h4.08z" fill="#fff" fill-rule="evenodd"/></svg>