<svg height="48" width="58" xmlns="http://www.w3.org/2000/svg"><path d="m57.195 40.476c-.205.823-.918 1.441-1.715 1.732-.234.087-.476.126-.721.144-.104.771-.207 1.542-.312 2.311-.055.403-.121.805-.163 1.207-.043.361-.079.688-.266 1.015-.284.496-.798.869-1.365.986-.538.11-1.142.046-1.692.046-.683 0-1.377.047-1.963-.373-.532-.379-.81-.91-.87-1.54-.012-.105-.024-.209-.036-.314-.067-.496-.133-.998-.2-1.493-.082-.618-.165-1.234-.247-1.851-.185-.012-.369-.026-.55-.074-.701-.193-1.371-.659-1.704-1.295-.356-.676-.229-1.329-.06-2.017.55-2.234 1.081-4.479 1.661-6.706.32-1.237 1.208-2.292 2.61-2.321.538-.012 1.075 0 1.607 0 .537 0 1.075-.012 1.607 0 1.407.029 2.307 1.067 2.609 2.321.007.027 0 .053.004.081.113.455.227.91.341 1.365.416 1.662.827 3.324 1.238 4.985.151.595.344 1.173.187 1.791zm-4.754 5.557s0-.001.001-.002c-.018.029-.038.06-.001.002zm-.115.111c.028-.018.035-.023.033-.022-.004.003-.021.014-.038.024.002-.001.004-.001.005-.002zm-2.328-.053c-.001-.001-.001-.001-.002-.002-.004-.001.007.008-.026-.015.009.007.018.01.028.017zm5.458-6.192c-.562-2.397-1.191-4.788-1.783-7.179-.036-.146-.078-.292-.157-.437-.008-.027-.011-.035-.01-.033-.007-.014-.012-.029-.02-.043-.03-.052-.054-.111-.09-.163-.015-.024-.062-.087-.076-.108-.017-.018-.032-.037-.051-.056-.023-.021-.086-.07-.097-.082-.018-.011-.035-.023-.054-.034-.073-.041-.206-.058-.043-.03-.042-.011-.102-.028-.139-.04-.025-.008-.022-.01-.032-.015-.012.001-.009.004-.034.004-.024 0-.054 0-.085 0-.06 0-.12 0-.181 0-.719 0-1.431 0-2.15 0-.254 0-.508 0-.761 0-.043 0-.079 0-.115 0s-.071.002-.107.003c-.027.006-.062.013-.081.02-.035.017-.119.059-.095.045-.019.01-.037.02-.056.03-.02.01-.02.007-.03.01-.005.008-.002.009-.018.025-.03.035-.066.076-.103.105-.012.011-.003.003-.011.01-.036.048-.065.095-.097.142-.024.035-.169.332-.103.175-.042.105-.079.203-.109.309-.03.105-.054.21-.078.315-.26 1.038-.514 2.076-.773 3.113-.29 1.179-.587 2.351-.876 3.529-.031.122-.061.239-.091.362 0 .016-.006.04-.012.058-.042.192 0 .035 0 .012 0 .052 0 .104.006.157 0-.004.001-.002 0-.005.033.063.071.121.109.179.007.007.013.014.018.018.048.047.096.093.145.135.003.002 0 .001.003.003.013.005.016.005.045.02.054.028.314.14.151.087.054.018.103.035.157.047-.003 0 .054.012.1.022.03-.001.14.007.178.007h.211.369c.544 0 .846.408.906.874.127.962.26 1.919.387 2.875.06.45.121.904.181 1.353.012.082.024.164.03.245v.009c.002.01.003.011.006.026 0 0 .002.006.003.008.009.012.028.044.044.067.013.013.016.017.014.019.002.003-.001-.001.001.001.015.011.03.019.046.029-.005-.01.095.031.098.041.04.001.106.005.126.005h.284.876.701c.066 0 .23-.041.079.005.032-.01.072-.013.102-.026.005-.003.001-.001.012-.009.015-.008.031-.018.047-.027.013-.012.024-.022.032-.031.007-.012.013-.022.03-.047.008-.011.006-.007.009-.012.013-.029.017-.067.027-.098-.009.031-.014.048-.017.06.004-.016.009-.038.011-.06 0-.018.006-.035.006-.053.012-.14.037-.274.055-.408.066-.508.139-1.015.205-1.522.115-.817.224-1.633.332-2.45.061-.472.369-.874.906-.874h.568.139c.027-.001.025.001.038.002.01-.005.011-.009.047-.02.008-.004.127-.042.146-.043.059-.03.117-.063.174-.09.044-.029.067-.044.072-.046.026-.022.053-.044.079-.066-.004.008.068-.067.099-.097.016-.026.045-.071.071-.11-.004-.006.045-.116.054-.137.003-.036.002-.073 0-.11zm-8.512.198v.001c0-.001 0-.001 0-.001zm0 0c-.012-.187.088.174 0 0zm4.996-10.963c-1.565.274-3.154-.379-3.975-1.703-.822-1.33-.635-3.015.368-4.199.949-1.119 2.652-1.586 4.072-1.096 1.522.525 2.537 1.878 2.561 3.441-.024 1.691-1.268 3.247-3.026 3.557zm1.2-3.298c-.028.124-.005.046 0 0zm.008-.561c-.002-.01-.003-.012-.006-.025-.03-.14-.073-.274-.121-.408-.003-.011-.002-.008-.004-.014-.011-.021-.021-.041-.032-.062-.036-.058-.061-.116-.097-.169-.025-.048-.056-.089-.087-.131-.007-.011-.033-.046-.046-.061-.109-.112-.217-.217-.332-.321-.021-.019-.02-.02-.027-.027-.009-.005-.012-.005-.039-.02-.043-.023-.091-.058-.133-.082-.067-.04-.139-.075-.206-.11-.023-.012-.019-.012-.03-.018-.012-.002-.013-.001-.048-.011-.127-.041-.254-.076-.387-.105-.03-.007-.031-.008-.042-.012-.01.001-.012.002-.043 0-.072-.006-.138-.012-.211-.012-.103 0-.204.005-.306.014-.019.005-.083.015-.111.021-.066.012-.127.03-.193.047-.048.012-.103.029-.151.047-.019.006-.016.004-.029.008-.004.003.003.001-.013.009-.127.064-.248.14-.375.21-.01.006-.011.007-.019.011-.056.044-.112.092-.162.14-.079.071-.145.146-.218.222-.021.023-.021.02-.03.029-.006.011-.003.01-.018.035-.024.041-.06.088-.084.129-.043.064-.079.134-.115.198-.011.017-.01.014-.016.025-.002.005.001 0-.002.01-.037.111-.073.221-.103.332 0-.003-.014.059-.024.105-.005.042-.018.138-.018.134-.012.117-.012.239 0 .362.002.016.004.035.005.053.001.003.002.005.007.029.012.064.024.128.042.192.018.052.03.105.048.152-.004-.005.048.122.053.14.018.038.038.078.038.075.024.047.054.093.078.135.037.052.073.104.109.157.012.018.007.015.008.019.008.008.006.005.016.016.085.093.176.181.272.268.013.013.124.092.121.092.024.016.049.032.073.048.096.062.199.113.305.161.031.009.155.055.196.066.091.024.187.047.278.065.016.003.008.003.014.005.013 0 .009-.001.028 0 .121.006.248.012.375.006.054-.005.112-.009.169-.014.012-.003.016-.004.036-.009.133-.029.26-.064.387-.105.032-.009.038-.009.046-.01.009-.006.009-.007.032-.019.042-.023.091-.047.139-.071.06-.028.115-.063.169-.098.013-.006.038-.023.06-.038.081-.065.159-.133.236-.207.027-.026.146-.173.161-.184.077-.114.144-.228.214-.347.007-.011.017-.034.025-.052.012-.032.024-.064.035-.094.042-.12.066-.246.095-.373.001-.003.002-.008.002-.011.006-.082.012-.164.012-.245 0-.103-.005-.201-.006-.302zm-6.615-6.416c-.495.023-.9-.42-.906-.875 0-.091 0-.182-.012-.274-.006-.039-.014-.08-.024-.123-.018-.075-.043-.151-.067-.227-.006-.017-.031-.077-.045-.113-.063-.124-.137-.237-.208-.36-.016-.025-.016-.028-.02-.037-.008-.006-.009-.006-.029-.026-.048-.059-.102-.117-.157-.17-.061-.053-.123-.106-.188-.16-.028-.019-.058-.035-.084-.055-.072-.041-.139-.082-.205-.117-.023-.011-.122-.055-.155-.072-.14-.049-.277-.089-.419-.12-.031-.007-.028-.008-.04-.011-.014 0-.012.001-.044-.001-.085-.006-.17-.012-.254-.012-.085 0-.169.006-.254.012-.031.001-.033-.001-.045-.001-.008.003-.01.005-.039.013-.091.023-.182.04-.272.07-.017.004-.117.039-.156.052-.047.023-.155.074-.17.082-.067.041-.133.081-.2.123-.026.015-.029.015-.036.018-.008.008-.009.01-.03.028-.061.047-.121.099-.175.151-.055.059-.103.111-.158.17-.019.02-.018.017-.027.025-.006.011-.004.011-.021.038-.069.113-.139.228-.201.348-.006.02-.056.138-.065.166-.024.076-.042.152-.06.227-.011.039-.017.072-.023.111-.001.006 0 .004-.001.012-.006.081-.012.163-.012.245-.006.489-.405.851-.912.863-.484.023-.913-.42-.907-.875.031-1.977 1.698-3.633 3.764-3.633 2.072 0 3.733 1.656 3.763 3.633.006.49-.423.851-.906.875zm-7.587-7.383c-.496.023-.9-.42-.906-.874 0-.092-.001-.183-.012-.274-.007-.04-.015-.08-.025-.123-.018-.076-.042-.152-.066-.227-.006-.018-.03-.076-.045-.112-.063-.125-.137-.239-.209-.361-.015-.026-.016-.029-.02-.038-.007-.006-.009-.006-.028-.026-.048-.058-.103-.117-.157-.169-.061-.054-.123-.107-.189-.161-.027-.018-.057-.035-.083-.055-.072-.041-.139-.082-.205-.117-.023-.01-.119-.053-.154-.071-.141-.049-.278-.089-.42-.121-.031-.006-.029-.007-.041-.011-.013 0-.011.002-.044-.001-.084-.006-.169-.012-.254-.012-.084 0-.169.006-.253.012-.031.001-.034 0-.045-.001-.009.004-.01.006-.04.013-.09.024-.181.041-.272.07-.016.004-.119.041-.157.053-.048.024-.153.073-.169.081-.066.041-.133.082-.199.123-.026.015-.029.015-.037.019-.008.007-.008.009-.03.027-.06.047-.12.099-.175.152-.054.058-.103.111-.157.169-.019.02-.018.017-.027.025-.005.011-.004.012-.021.039-.069.113-.14.228-.202.349-.006.022-.056.136-.064.164-.024.076-.042.152-.06.228-.012.038-.017.072-.023.11-.001.007-.001.004-.002.012-.006.082-.012.163-.012.245-.006.49-.41.852-.912.863-.483.023-.912-.42-.906-.874.03-1.978 1.698-3.633 3.763-3.633 2.073 0 3.734 1.655 3.764 3.633.006.49-.423.851-.906.874zm-1.722 10.66c1.522.525 2.537 1.878 2.561 3.441-.024 1.691-1.268 3.247-3.026 3.557-1.565.274-3.153-.379-3.975-1.703-.821-1.33-.634-3.015.369-4.199.948-1.119 2.652-1.586 4.071-1.096zm.735 3.7c-.028.124-.005.046 0 0zm-3.87-.061c.003.016.004.035.005.053.002.003.003.005.007.029.012.064.024.128.042.192.018.052.031.105.049.152-.005-.005.047.122.052.14.018.038.038.078.038.075.024.047.055.093.079.135.036.052.072.104.109.157.011.018.007.015.008.019.007.008.005.005.016.016.084.093.175.181.272.268.013.013.123.092.12.092.024.016.05.032.073.048.096.062.199.113.305.161.031.008.155.055.196.066.091.024.188.047.278.065.016.003.009.003.014.005.013 0 .009-.001.028 0 .121.006.248.012.375.006.055-.005.113-.009.169-.014l.036-.009c.133-.029.26-.064.387-.105.033-.009.038-.009.046-.01.01-.006.009-.007.032-.019.043-.023.091-.047.139-.071.061-.028.115-.063.17-.098.013-.006.037-.023.059-.038.082-.065.16-.132.237-.207.027-.026.145-.173.16-.184.077-.114.144-.228.214-.347.007-.011.018-.035.026-.053.011-.031.023-.063.035-.093.041-.12.065-.246.095-.373 0-.003.001-.008.001-.011.006-.082.012-.164.012-.245 0-.103-.001-.2-.005-.302-.003-.01-.003-.011-.007-.025-.03-.14-.072-.274-.121-.408-.003-.011-.002-.008-.004-.014-.01-.021-.021-.041-.032-.062-.036-.058-.06-.116-.097-.169-.024-.048-.056-.089-.086-.131-.008-.011-.033-.046-.046-.061-.109-.112-.218-.217-.333-.321-.02-.019-.02-.02-.026-.027-.01-.005-.013-.005-.04-.02-.042-.023-.091-.058-.133-.082-.066-.04-.139-.075-.205-.11-.024-.012-.02-.012-.031-.018-.012-.002-.013-.001-.048-.011-.127-.041-.254-.076-.387-.105-.03-.007-.031-.008-.042-.012-.009.001-.011.002-.042 0-.073-.006-.139-.012-.212-.012-.103 0-.203.005-.305.014-.019.005-.083.015-.111.021-.067.012-.127.03-.194.047-.048.012-.102.029-.151.047-.019.006-.016.004-.028.008-.005.003.002.001-.014.009-.127.064-.248.14-.375.21-.01.006-.011.007-.019.011-.056.044-.111.092-.162.14-.078.071-.145.146-.217.222-.021.023-.022.02-.031.029-.006.011-.003.01-.018.035-.024.041-.06.088-.084.129-.042.064-.079.134-.115.198-.01.017-.009.014-.016.025-.002.005.002 0-.002.01-.036.111-.073.221-.103.332 0-.003-.013.059-.024.105-.005.042-.018.138-.018.134-.012.117-.012.239 0 .362zm-2.731-6.916c-.495.023-.9-.42-.906-.875 0-.091 0-.183-.011-.274-.007-.04-.015-.08-.025-.123-.018-.075-.042-.151-.066-.227-.006-.017-.031-.077-.046-.113-.063-.124-.137-.237-.208-.36-.016-.025-.015-.028-.02-.037-.007-.006-.009-.006-.028-.026-.049-.059-.103-.117-.157-.17-.061-.053-.123-.106-.189-.16-.027-.019-.057-.035-.083-.055-.073-.041-.139-.082-.206-.117-.022-.011-.122-.055-.155-.072-.14-.049-.277-.089-.419-.12-.03-.007-.027-.008-.04-.011-.013 0-.012.001-.044-.001-.085-.006-.169-.012-.254-.012-.084 0-.169.006-.254.012-.031.001-.033-.001-.044-.001-.009.003-.01.005-.04.013-.091.023-.181.04-.272.07-.016.004-.117.039-.156.052-.047.023-.154.074-.17.082-.067.041-.133.081-.199.123-.026.015-.029.015-.037.018-.008.008-.008.01-.03.028-.06.047-.121.099-.175.151-.055.059-.103.111-.157.17-.019.02-.019.017-.028.025-.005.011-.004.011-.021.038-.068.113-.139.228-.201.348-.005.02-.056.138-.064.166-.024.076-.043.152-.061.227-.011.039-.017.072-.023.111 0 .006 0 .004-.001.012-.006.081-.012.163-.012.245-.006.489-.411.851-.912.863-.483.023-.912-.42-.906-.875.03-1.977 1.697-3.633 3.763-3.633 2.072 0 3.733 1.656 3.764 3.633.006.49-.423.851-.907.875zm0-14.351c-.495.023-.9-.421-.906-.875 0-.091 0-.183-.011-.274-.007-.04-.015-.08-.025-.123-.018-.075-.042-.151-.066-.227-.006-.017-.03-.075-.045-.111-.063-.125-.137-.239-.209-.362-.016-.025-.015-.028-.02-.037-.007-.006-.009-.006-.028-.026-.049-.059-.103-.117-.157-.17-.061-.053-.123-.107-.189-.16-.027-.019-.057-.035-.083-.055-.073-.041-.139-.082-.206-.117-.022-.011-.121-.055-.154-.072-.141-.049-.278-.089-.42-.121-.029-.006-.026-.007-.038-.01-.014 0-.012.001-.046-.001-.085-.006-.169-.012-.254-.012-.084 0-.169.006-.254.012-.031.001-.034-.001-.045-.002-.009.004-.01.006-.039.013-.091.024-.181.041-.272.07-.016.004-.12.042-.158.053-.048.024-.152.074-.168.082-.067.04-.133.081-.199.122-.026.015-.029.015-.037.019-.008.007-.008.009-.03.027-.06.047-.121.1-.175.152-.055.058-.103.111-.157.17-.019.02-.019.017-.028.025-.005.01-.003.011-.021.038-.069.113-.139.229-.201.35-.007.023-.056.136-.064.164-.024.075-.043.152-.061.227-.011.038-.017.072-.022.109-.001.008-.001.005-.002.014-.006.081-.012.163-.012.245-.006.489-.411.857-.912.863-.483.023-.912-.421-.906-.875.03-1.977 1.697-3.633 3.763-3.633 2.072 0 3.733 1.656 3.764 3.633.006.49-.423.851-.907.875zm-1.67-2.378c-.001 0-.002-.001-.003-.002-.037-.027-.028-.021.003.002zm-5.917 9.346c-.495.023-.9-.42-.906-.874 0-.092 0-.183-.012-.275-.006-.039-.014-.08-.024-.122-.018-.076-.042-.152-.067-.227-.006-.018-.03-.076-.044-.112-.064-.125-.138-.239-.209-.361-.016-.026-.016-.029-.021-.038-.007-.006-.009-.006-.028-.026-.048-.058-.102-.117-.157-.169-.061-.054-.122-.107-.188-.16-.027-.019-.057-.036-.084-.056-.072-.041-.139-.082-.205-.117-.022-.01-.119-.053-.153-.07-.141-.05-.279-.09-.421-.122-.031-.006-.028-.007-.041-.011-.013 0-.011.002-.043-.001-.085-.006-.17-.012-.254-.012-.085 0-.169.006-.254.012-.031.001-.033 0-.045-.001-.008.004-.01.006-.039.013-.091.024-.182.041-.272.07-.017.004-.12.041-.157.053-.048.024-.154.073-.17.081-.066.041-.132.082-.199.123-.026.015-.029.015-.036.019-.008.007-.009.009-.03.027-.061.047-.121.099-.175.152-.055.058-.103.111-.158.169-.019.02-.018.017-.027.025-.005.011-.004.012-.021.039-.069.113-.14.228-.202.349-.006.022-.055.136-.064.164-.024.076-.042.152-.06.228-.011.038-.017.072-.023.11-.001.007 0 .004-.001.012-.006.082-.012.163-.012.245-.012.49-.411.852-.912.863-.484.023-.913-.42-.907-.874.031-1.978 1.698-3.633 3.764-3.633 2.072 0 3.733 1.655 3.763 3.633.006.49-.423.851-.906.874zm-1.721 10.66c1.522.525 2.537 1.878 2.561 3.441-.024 1.691-1.269 3.247-3.027 3.557-1.564.274-3.153-.379-3.974-1.703-.822-1.33-.635-3.015.368-4.199.948-1.119 2.652-1.586 4.072-1.096zm.735 3.7c-.028.124-.005.046 0 0zm-3.871-.061c.003.016.004.035.006.053.001.003.002.005.006.029.012.064.025.128.043.192.018.052.03.105.048.152-.004-.005.047.122.052.14.019.038.039.078.039.075.024.047.054.093.078.135.036.052.073.104.109.157.011.018.007.015.008.019l.016.016c.085.093.175.181.272.268.013.013.123.092.12.092.024.016.05.032.073.048.097.062.2.113.306.161.031.009.155.055.196.066.09.024.187.047.277.065.016.003.009.003.015.005.013 0 .009-.001.028 0 .121.006.247.012.374.006.055-.005.113-.009.169-.014.013-.003.017-.004.037-.009.133-.029.259-.064.386-.105.033-.009.038-.009.046-.01.01-.006.009-.007.033-.019.042-.023.09-.047.139-.071.06-.028.115-.063.169-.098.013-.006.037-.023.059-.038.082-.065.16-.132.237-.207.027-.026.146-.173.16-.184.077-.114.145-.228.214-.347.007-.011.018-.034.026-.052.012-.032.023-.064.035-.094.042-.12.065-.246.095-.373 0-.003.002-.008.002-.011.006-.082.012-.164.012-.245 0-.103-.005-.201-.006-.302-.003-.01-.003-.012-.006-.025-.031-.14-.073-.274-.121-.408-.004-.011-.002-.008-.004-.014-.011-.021-.022-.041-.033-.062-.036-.058-.06-.116-.096-.169-.025-.048-.057-.089-.087-.131-.008-.011-.033-.046-.046-.061-.109-.112-.218-.217-.332-.321-.021-.019-.021-.02-.027-.027-.01-.005-.013-.005-.04-.02-.042-.023-.09-.058-.133-.082-.066-.04-.139-.075-.205-.11-.023-.012-.019-.012-.031-.018-.012-.002-.013-.001-.048-.011-.126-.041-.253-.076-.386-.105-.03-.007-.032-.008-.043-.012-.009.001-.011.002-.042 0-.072-.006-.139-.012-.211-.012-.104 0-.204.005-.306.014-.019.005-.083.015-.111.021-.067.012-.127.03-.193.047-.049.012-.103.029-.151.047-.02.006-.016.004-.029.008-.004.003.002.001-.014.009-.127.064-.247.14-.374.21-.011.006-.012.007-.019.011-.056.044-.112.092-.162.14-.079.071-.145.146-.218.222-.021.023-.021.02-.031.029-.005.011-.002.01-.017.035-.024.041-.061.088-.085.129-.042.064-.078.134-.115.198-.01.017-.009.014-.016.025-.001.005.002 0-.002.01-.036.111-.072.221-.102.332 0-.003-.014.059-.025.105-.004.042-.018.138-.018.134-.012.117-.012.239 0 .362zm-2.736-6.916c-.496.023-.9-.42-.906-.875 0-.091-.001-.183-.012-.274-.007-.04-.015-.08-.025-.123-.018-.075-.042-.151-.066-.227-.006-.017-.031-.077-.046-.113-.063-.124-.137-.237-.208-.36-.015-.025-.015-.028-.02-.037-.007-.006-.009-.006-.028-.026-.048-.059-.103-.117-.157-.17-.061-.053-.123-.106-.189-.16-.027-.019-.057-.035-.083-.055-.072-.041-.139-.082-.205-.117-.023-.011-.123-.055-.155-.072-.141-.049-.278-.089-.419-.12-.031-.007-.028-.008-.041-.011-.013 0-.011.001-.044-.001-.084-.006-.169-.012-.254-.012-.084 0-.169.006-.253.012-.031.001-.034-.001-.045-.001-.009.003-.01.005-.04.013-.09.023-.181.04-.272.07-.016.004-.116.039-.155.052-.048.023-.155.074-.171.082-.066.041-.133.081-.199.123-.026.015-.029.015-.037.018-.008.008-.008.01-.03.028-.06.047-.12.099-.175.151-.054.059-.103.111-.157.17-.019.02-.019.017-.028.025-.005.011-.003.011-.02.038-.069.113-.14.228-.202.348-.005.02-.056.138-.064.166-.024.076-.042.152-.06.227-.012.039-.017.072-.023.111-.001.006-.001.004-.002.012-.006.081-.012.163-.012.245-.006.489-.404.851-.912.863-.483.023-.912-.42-.906-.875.03-1.977 1.698-3.633 3.763-3.633 2.073 0 3.734 1.656 3.764 3.633.006.49-.423.851-.906.875zm-9.774 10.275c-1.565.274-3.154-.379-3.975-1.703-.822-1.33-.634-3.015.368-4.199.949-1.119 2.652-1.586 4.072-1.096 1.522.525 2.537 1.878 2.561 3.441-.024 1.691-1.268 3.247-3.026 3.557zm1.2-3.298c-.028.124-.005.046 0 0zm.008-.561c-.002-.01-.003-.012-.006-.025-.03-.14-.073-.274-.121-.408-.003-.011-.002-.008-.004-.014-.011-.021-.021-.041-.032-.062-.036-.058-.061-.116-.097-.169-.025-.048-.056-.089-.087-.131-.007-.011-.033-.046-.046-.061-.109-.112-.217-.217-.332-.321-.021-.019-.02-.02-.027-.027-.009-.005-.012-.005-.039-.02-.043-.023-.091-.058-.133-.082-.067-.04-.139-.075-.206-.11-.023-.012-.019-.012-.03-.018-.012-.002-.013-.001-.048-.011-.127-.041-.254-.076-.387-.105-.03-.007-.032-.008-.043-.012-.009.001-.011.002-.041 0-.073-.006-.139-.012-.212-.012-.104 0-.204.005-.306.014-.019.005-.083.015-.111.021-.066.012-.127.03-.193.047-.048.012-.103.029-.151.047-.019.006-.016.004-.029.008-.004.003.003.001-.013.009-.127.064-.248.14-.375.21-.01.006-.011.007-.019.011-.056.044-.112.092-.162.14-.079.071-.145.146-.218.222-.021.023-.021.02-.03.029-.006.011-.003.01-.018.035-.024.041-.06.088-.085.129-.042.064-.078.134-.114.198-.011.017-.01.014-.017.025-.001.005.002 0-.001.01-.037.111-.073.221-.103.332 0-.003-.014.059-.024.105-.005.042-.018.138-.018.134-.012.117-.012.239 0 .362.002.016.004.035.005.053.001.003.002.005.007.029.012.064.024.128.042.192.018.052.03.105.048.152-.004-.005.048.123.053.14.018.038.038.078.038.075.024.047.054.093.078.135.037.052.073.104.109.157.012.018.007.015.008.019.008.008.006.005.016.016.085.093.176.181.272.268.013.013.124.092.121.092.024.016.049.032.073.048.096.062.199.113.305.161.031.009.155.055.196.066.091.024.187.047.278.065.016.003.008.003.014.005.013 0 .009-.001.028 0 .121.006.248.012.375.006.054-.005.112-.009.168-.014.013-.003.017-.004.037-.009.133-.029.26-.064.387-.105.032-.009.038-.009.046-.01.009-.006.009-.007.032-.019.042-.023.091-.047.139-.071.06-.028.115-.063.169-.098.013-.006.038-.023.06-.038.081-.065.159-.132.236-.207.027-.026.146-.173.161-.184.077-.114.144-.228.214-.347.007-.011.017-.034.025-.052.012-.032.024-.064.035-.094.042-.12.066-.246.095-.373.001-.003.002-.008.002-.011.006-.082.012-.164.012-.245 0-.103-.005-.201-.006-.302zm-.369 4.658c.405 0 .816-.006 1.221 0 1.406.033 2.512 1.069 2.626 2.399.009.048.032.094.032.143v1.195 4.118c0 .571 0 1.102-.248 1.638-.242.531-.695.98-1.232 1.231-.195.089-.393.134-.592.175v3.178 1.731c0 .974-.544 1.879-1.583 2.118-.302.07-.61.058-.918.058-.387 0-.78 0-1.172 0-.87 0-1.764.082-2.447-.56-.568-.531-.634-1.201-.634-1.907 0-.665 0-1.335 0-2 0-.865 0-1.733 0-2.6-.29-.058-.569-.156-.834-.322-.694-.431-1.117-1.125-1.214-1.912-.054-.455-.018-.933-.018-1.388 0-1.417 0-2.834 0-4.251 0-.636.018-1.254.387-1.82.537-.833 1.443-1.224 2.434-1.224zm-4.524 1.743c.211-.021-.121.052-.119.039-.041.019-.111.049-.111.049-.025.014-.052.032-.078.048-.001.005-.098.075-.115.092-.031.026-.055.054-.081.082-.016.022-.038.053-.046.07-.021.04-.043.079-.063.118.002.008-.022.083-.04.144.003.004-.018.127-.018.151-.006.321 0 .642 0 .963v4.006c0 .309-.006.612 0 .921 0 .036.003.068.004.101.005.026.014.08.02.103.004.024.026.084.031.103.014.026.028.054.042.078.019.033.043.068.067.102.016.02.035.043.048.056.045.038.091.081.136.12.006.004.007.004.015.008.062.03.12.066.18.094.015.005.03.009.037.011 0 0 .08.019.126.03.049.004.125.01.122.01h.326c.489 0 .906.403.906.875v3.686 1.796c0 .122.006.251 0 .379-.001.008 0 .015 0 .023.005.002.016.06.027.104.008.016.017.032.022.03.013.017.014.02.022.03.001 0 .002.001.003.001-.001-.001 0 0-.001-.001-.012-.007-.018-.018-.024-.03.033.03.045.041.049.047.004.002.007.004.011.006-.002.003.011.01.027.018.037.008.086.02.108.027.018.001.036.002.046.002h.103.344 1.13.894c.06 0 .284-.036.121.005.035-.008.072-.019.109-.029.016-.008.03-.016.044-.026.016-.015.031-.029.046-.044.019-.035.027-.045.032-.052.001-.004.003-.008.004-.012.007-.028.009-.029.012-.041 0-.011 0-.022 0-.034 0-.007 0-.012 0-.018 0-.041 0-.082 0-.122 0-.199 0-.391 0-.589 0-.683 0-1.359 0-2.036 0-1.032 0-2.07 0-3.108 0-.472.417-.875.906-.875.164 0 .333.012.496-.006-.242.024.296-.11.084-.023.079-.035.139-.076.212-.111.006-.003.015-.01.024-.017.053-.044.103-.093.151-.14.015-.014.006-.006.014-.014.04-.06.079-.125.113-.185.007-.012.006-.009.011-.018-.001-.003-.005-.001.001-.023.014-.045.026-.095.038-.145.004-.028.01-.066.01-.088 0-.017 0-.04 0-.058.037-1.953 0-3.913 0-5.872 0-.042 0-.089 0-.14-.018-.064-.036-.123-.054-.186.042.139-.012-.012-.042-.071-.014-.023-.033-.049-.049-.074-.002.003-.079-.095-.096-.112-.022-.025-.045-.043-.068-.062-.013-.005-.095-.062-.12-.078 0 0-.076-.031-.116-.05-.048-.011-.135-.034-.149-.038-.015-.004-.008-.004-.013-.007-.013.001-.01.002-.03.002-.03 0-.066 0-.096 0-.055 0-.103 0-.157 0-.611 0-1.215 0-1.825 0-1.178 0-2.362-.006-3.546 0-.072 0-.145 0-.217.005zm13.918.578c.32-1.237 1.208-2.292 2.61-2.321.537-.012 1.069 0 1.606 0 .538 0 1.076-.012 1.607 0 1.408.029 2.308 1.067 2.61 2.321.006.027 0 .053.004.081.113.455.227.91.34 1.365.417 1.662.828 3.324 1.239 4.985.151.595.344 1.173.187 1.791-.205.823-.918 1.441-1.716 1.732-.234.087-.475.126-.72.144-.104.771-.207 1.542-.313 2.311-.054.403-.12.805-.163 1.207-.042.361-.078.688-.266 1.015-.284.496-.797.869-1.365.986-.537.11-1.142.046-1.691.046-.683 0-1.378.047-1.964-.373-.531-.379-.809-.91-.869-1.54-.013-.105-.025-.209-.037-.314-.066-.496-.133-.998-.199-1.493-.083-.618-.165-1.234-.248-1.851-.184-.012-.368-.026-.549-.074-.701-.193-1.372-.659-1.704-1.295-.356-.676-.23-1.329-.06-2.017.549-2.234 1.081-4.479 1.661-6.706zm5.449 13.779s0-.001 0-.002c-.018.029-.038.059 0 .002zm-.115.111c.028-.018.035-.023.032-.022-.004.003-.021.014-.037.024.001-.001.004-.001.005-.002zm-2.329-.053c0-.001 0-.001-.001-.002-.004-.001.006.008-.026-.015.009.007.018.01.027.017zm-3.059-6.145c0 .052 0 .104.006.157-.001-.004 0-.002 0-.005.033.063.071.121.109.179.006.007.013.015.017.018.049.047.097.093.145.135.004.002.001.001.004.003.013.005.015.005.045.02.054.028.314.14.151.087.054.018.102.035.157.047-.003 0 .054.012.1.022.029-.001.139.007.178.007h.211.369c.543 0 .845.408.906.874.127.962.259 1.919.386 2.875.061.45.121.904.182 1.353.012.082.024.164.03.245v.009c.002.01.003.011.006.026-.001 0 .002.006.002.008.009.012.029.044.045.067.013.013.015.017.014.019.002.003-.001-.001 0 .001.016.011.031.019.047.029-.005-.01.094.031.098.041.04.001.106.005.126.005h.284.876.701c.066 0 .229-.041.078.005.033-.01.073-.013.103-.026.005-.003.001-.001.012-.009.014-.008.03-.018.046-.027.014-.012.024-.022.033-.031.007-.012.013-.022.03-.047.007-.011.005-.007.009-.012.013-.029.016-.067.027-.098-.01.031-.015.049-.018.061.004-.016.01-.039.012-.061 0-.018.006-.035.006-.053.012-.14.036-.274.054-.408.067-.508.139-1.015.206-1.522.115-.817.223-1.633.332-2.45.06-.472.368-.874.906-.874h.568.139c.027-.001.025.001.037.002.011-.005.012-.009.047-.02.009-.004.128-.042.147-.043.059-.03.117-.063.174-.09.044-.029.067-.044.071-.046.027-.022.053-.044.08-.066-.004.008.068-.067.099-.097.016-.026.045-.071.07-.11-.003-.006.046-.116.054-.137.004-.036.002-.073 0-.11-.562-2.397-1.19-4.788-1.782-7.179-.036-.146-.078-.292-.157-.437-.008-.027-.011-.035-.01-.033-.007-.014-.013-.029-.02-.043-.03-.052-.055-.111-.091-.163-.014-.024-.061-.086-.075-.108-.017-.018-.032-.037-.052-.056-.022-.021-.085-.07-.096-.082-.018-.011-.036-.023-.055-.034-.072-.041-.205-.058-.042-.03-.042-.011-.103-.028-.139-.04-.025-.008-.022-.01-.032-.015-.012.001-.009.004-.034.004-.024 0-.055 0-.085 0-.06 0-.121 0-.181 0-.719 0-1.432 0-2.151 0-.253 0-.507 0-.761 0-.042 0-.078 0-.115 0-.035 0-.071.002-.106.003-.027.006-.062.013-.081.02-.036.017-.119.059-.096.045-.018.01-.036.02-.055.03-.021.01-.02.007-.03.01-.006.008-.003.009-.018.025-.03.035-.067.076-.103.105-.012.011-.003.003-.011.01-.036.048-.065.095-.098.142-.024.035-.169.332-.102.175-.043.105-.079.203-.109.309-.03.105-.054.21-.079.315-.259 1.038-.513 2.076-.773 3.113-.29 1.179-.586 2.351-.876 3.529-.03.122-.06.239-.09.362 0 .016-.006.04-.012.058-.043.192 0 .035 0 .012zm.006.151v.001c0-.001 0-.001 0-.001zm0 0c-.013-.187.087.174 0 0zm13.996-7.12c0-.636.018-1.254.387-1.82.538-.833 1.444-1.224 2.434-1.224h4.193c.404 0 .815-.006 1.22 0 1.406.033 2.511 1.069 2.626 2.398.01.049.032.095.032.144v1.195 4.118c0 .571 0 1.102-.248 1.638-.241.531-.694.98-1.232 1.231-.195.089-.393.134-.592.175v3.178 1.731c0 .974-.544 1.879-1.583 2.118-.302.07-.61.058-.918.058-.387 0-.779 0-1.172 0-.87 0-1.764.082-2.446-.56-.568-.531-.635-1.201-.635-1.907 0-.665 0-1.335 0-2 0-.865 0-1.733 0-2.6-.29-.058-.569-.156-.833-.322-.695-.431-1.118-1.125-1.215-1.912-.054-.455-.018-.933-.018-1.388 0-1.417 0-2.834 0-4.251zm1.819.455v4.006c0 .309-.007.612 0 .921 0 .036.002.068.003.101.006.026.015.08.021.103.003.024.025.084.03.103.014.026.028.054.042.078.019.033.044.068.068.102.015.02.034.043.047.056.045.038.091.081.136.12.007.004.007.004.015.008.062.03.12.066.18.094.015.005.03.009.038.011 0 0 .08.019.125.03.05.004.126.01.122.01h.326c.49 0 .907.403.907.875v3.686 1.796c0 .122.006.251 0 .379-.002.008 0 .015 0 .023.004.002.015.06.026.105.008.015.017.031.022.029.013.017.015.02.022.03.001 0 .002.001.003.001-.001-.001 0 0-.001-.001-.012-.007-.018-.018-.024-.03.033.03.045.041.05.047.003.002.006.004.01.006-.001.003.011.01.028.018.036.008.086.02.107.027.019.001.036.002.046.002h.103.345 1.129.894c.061 0 .284-.036.121.005.035-.008.073-.019.109-.029.017-.008.03-.016.045-.026.015-.015.03-.029.045-.044.02-.035.027-.045.032-.052.002-.004.004-.008.005-.012.006-.028.008-.029.012-.041 0-.011 0-.022 0-.034 0-.007 0-.012 0-.018 0-.041 0-.082 0-.122 0-.199 0-.391 0-.589 0-.683 0-1.359 0-2.036 0-1.032 0-2.07 0-3.108 0-.472.416-.875.906-.875.163 0 .332.012.495-.006-.242.024.296-.11.085-.023.078-.035.139-.076.211-.111.006-.003.015-.01.025-.017.053-.044.102-.093.15-.14.015-.014.006-.006.015-.014.039-.06.078-.125.112-.185.007-.012.006-.009.012-.018-.002-.003-.006-.001 0-.023.014-.045.027-.095.038-.144.005-.029.011-.067.011-.089 0-.017 0-.04 0-.058.036-1.953 0-3.913 0-5.872 0-.042-.002-.089 0-.14-.019-.064-.037-.123-.055-.186.043.139-.012-.012-.042-.071-.014-.023-.032-.049-.049-.074-.002.003-.078-.095-.096-.112-.021-.024-.045-.043-.067-.062-.013-.005-.096-.062-.12-.078 0 0-.077-.031-.117-.05-.048-.011-.134-.034-.149-.038s-.008-.004-.013-.007c-.013.001-.009.002-.029.002-.031 0-.067 0-.097 0-.054 0-.103 0-.157 0-.61 0-1.214 0-1.824 0-1.178 0-2.362-.006-3.546 0-.073 0-.145 0-.218.005.211-.021-.121.052-.118.039-.042.019-.111.049-.111.049-.025.014-.052.032-.079.048-.001.005-.098.075-.115.092-.031.026-.055.054-.08.082-.017.022-.039.053-.047.07-.021.04-.042.079-.063.118.002.008-.022.083-.04.144.004.003-.017.126-.017.151-.007.321 0 .642 0 .963z" fill="#6bc0bc" fill-rule="evenodd"/></svg>