<svg height="21" width="21" xmlns="http://www.w3.org/2000/svg"><path d="m15.289 20.625h-9.162c-3.112 0-5.643-2.554-5.643-5.692v-9.242c0-3.138 2.531-5.691 5.643-5.691h9.162c3.111 0 5.643 2.553 5.643 5.691v9.242c0 3.138-2.532 5.692-5.643 5.692zm3.828-5.692v-9.242c0-2.129-1.717-3.862-3.828-3.862h-9.162c-2.111 0-3.829 1.733-3.829 3.862v9.242c0 2.129 1.718 3.862 3.829 3.862h9.162c2.111 0 3.829-1.733 3.829-3.862zm-2.919-8.803c-.35 0-.693-.144-.94-.392-.248-.251-.391-.597-.391-.95 0-.354.143-.7.391-.949.247-.25.59-.393.94-.393s.694.143.94.393c.248.249.39.595.39.949 0 .352-.142.699-.39.95-.247.248-.59.392-.94.392zm-5.49 9.497c-2.905 0-5.269-2.384-5.269-5.315 0-2.93 2.364-5.314 5.269-5.314s5.269 2.384 5.269 5.314c0 2.931-2.364 5.315-5.269 5.315zm0-8.799c-1.905 0-3.455 1.563-3.455 3.484 0 1.922 1.55 3.484 3.455 3.484s3.454-1.562 3.454-3.484c0-1.921-1.549-3.484-3.454-3.484z" fill="#fff" fill-rule="evenodd"/></svg>