<svg height="21" viewBox="0 0 18 21" width="18" xmlns="http://www.w3.org/2000/svg"><path d="m347.455 78h-16.913a.565.565 0 0 1 -.393-.157.493.493 0 0 1 -.149-.375l.545-13.843a.532.532 0 0 1 .545-.494h15.81a.532.532 0 0 1 .545.494l.543 13.77a.552.552 0 0 1 .008.092.529.529 0 0 1 -.541.513zm-16.347-1.025h15.775l-.5-12.817h-14.77zm3.524-10.767a.514.514 0 1 0 .546.513.529.529 0 0 0 -.546-.514zm8.727 0a.514.514 0 1 0 .545.513.53.53 0 0 0 -.545-.514zm.545-4.593a4.918 4.918 0 0 0 -9.817 0 .547.547 0 0 0 1.091 0 3.825 3.825 0 0 1 7.635 0 .547.547 0 0 0 1.087 0z" fill="#1c294b" fill-rule="evenodd" transform="translate(-330 -57)"/></svg>