<svg height="15.875" viewBox="0 0 19.437 15.875" width="19.437" xmlns="http://www.w3.org/2000/svg"><path d="m178.211 366.058a11.3 11.3 0 0 0 11.353-11.407c0-.174 0-.347-.011-.519a8.119 8.119 0 0 0 1.99-2.076 7.939 7.939 0 0 1 -2.291.632 4.02 4.02 0 0 0 1.754-2.218 7.967 7.967 0 0 1 -2.533.973 4 4 0 0 0 -6.8 3.657 11.315 11.315 0 0 1 -8.225-4.189 4.026 4.026 0 0 0 1.235 5.352 3.952 3.952 0 0 1 -1.807-.5v.051a4.005 4.005 0 0 0 3.2 3.93 3.935 3.935 0 0 1 -1.8.069 4 4 0 0 0 3.724 2.787 7.982 7.982 0 0 1 -4.956 1.716 8.111 8.111 0 0 1 -.952-.055 11.259 11.259 0 0 0 6.117 1.8" fill="#c2cace" fill-rule="evenodd" transform="translate(-172.094 -350.188)"/></svg>