<svg height="44" width="38" xmlns="http://www.w3.org/2000/svg"><path d="m36.626 43.934h-35.225c-.486 0-.88-.392-.88-.878v-28.122c0-.485.394-.879.88-.879h7.045c.486 0 .881.394.881.879v16.154l12.815-6.395c.272-.136.597-.123.856.039.26.16.419.443.419.747v5.609l12.814-6.395c.273-.136.597-.123.857.039.26.16.418.443.418.747v17.577c0 .486-.393.878-.88.878zm-29.06-28.121h-5.284v3.515h5.284zm28.179 11.088-12.814 6.395c-.274.135-.598.123-.857-.038-.26-.161-.419-.443-.419-.748v-5.609l-12.815 6.395c-.272.136-.597.123-.857-.038-.259-.161-.417-.443-.417-.748v-11.425h-5.284v21.091h33.463zm-23.776 8.246c.486 0 .88.392.88.878v1.758c0 .486-.394.878-.88.878s-.881-.392-.881-.878v-1.758c0-.486.395-.878.881-.878zm5.283 0c.487 0 .881.392.881.878v1.758c0 .486-.394.878-.881.878-.486 0-.88-.392-.88-.878v-1.758c0-.486.394-.878.88-.878zm8.806 0c.487 0 .881.392.881.878v1.758c0 .486-.394.878-.881.878s-.88-.392-.88-.878v-1.758c0-.486.393-.878.88-.878zm5.284 0c.487 0 .881.392.881.878v1.758c0 .486-.394.878-.881.878s-.88-.392-.88-.878v-1.758c0-.486.393-.878.88-.878zm-8.806-22.849c-2.428 0-4.403-1.971-4.403-4.394 0-3.392-2.765-6.152-6.164-6.152s-6.164 2.76-6.164 6.152c0 .484-.395.878-.881.878s-.881-.394-.881-.878c0-4.361 3.556-7.91 7.926-7.91 4.369 0 7.925 3.549 7.925 7.91 0 1.454 1.185 2.637 2.642 2.637s2.642-1.183 2.642-2.637c0-.485.393-.878.88-.878s.881.393.881.878c0 2.423-1.975 4.394-4.403 4.394z" fill="#fcd139" fill-rule="evenodd"/></svg>