<svg height="48" viewBox="0 0 51 48" width="51" xmlns="http://www.w3.org/2000/svg"><path d="m175.945 1757.82a.991.991 0 0 0 .461.18h18.6a.712.712 0 0 0 .461-.18 22.1 22.1 0 0 0 7.552-7.6l.921-.54c5.711-2.89 11.053-5.69 11.053-11.93a4.752 4.752 0 0 0 -1.842-4.16c-1.75-1.27-4.237-1-5.619-.72a35.429 35.429 0 0 0 -.184-3.8.971.971 0 0 0 -.921-.81h-41.258a.987.987 0 0 0 -.921.72 39 39 0 0 0 .277 10.94c1.381 7.95 5.342 14.1 11.42 17.9zm36.1-22.78a3.133 3.133 0 0 1 1.106 2.71c0 4.7-3.776 7.14-8.474 9.67a35.63 35.63 0 0 0 2.855-12.66c1.018-.36 3.228-.63 4.517.28zm-46.045-4.98h39.51c.369 3.62.921 18.63-10.776 26.13h-17.96c-11.881-7.59-11.144-22.6-10.774-26.13zm17.684-12.47a3.8 3.8 0 1 0 0-7.6.905.905 0 1 0 0 1.81 1.99 1.99 0 1 1 0 3.98 3.8 3.8 0 1 0 0 7.59.9.9 0 1 0 0-1.8 1.99 1.99 0 1 1 -.002-3.98zm7.829 0a3.8 3.8 0 1 0 0-7.6.905.905 0 1 0 0 1.81 1.99 1.99 0 1 1 0 3.98 3.8 3.8 0 1 0 0 7.59.9.9 0 1 0 0-1.8 2.03 2.03 0 0 1 -2.027-1.99 1.966 1.966 0 0 1 2.025-1.99z" fill="#fefefe" fill-rule="evenodd" opacity=".5" transform="translate(-164 -1710)"/></svg>