<svg height="42" width="43" xmlns="http://www.w3.org/2000/svg"><path d="m38.828 19.418c-1.785 0-3.236-1.466-3.236-3.267 0-1.803 1.451-3.268 3.236-3.268 1.784 0 3.235 1.465 3.235 3.268 0 1.801-1.451 3.267-3.235 3.267zm0-5.083c-.992 0-1.798.814-1.798 1.816 0 1 .806 1.815 1.798 1.815.991 0 1.797-.815 1.797-1.815 0-1.002-.806-1.816-1.797-1.816zm-24.011 17.431c-1.587 1.603-3.672 2.404-5.757 2.404s-4.17-.801-5.757-2.404l-.144-.146c-3.174-3.205-3.174-8.42 0-11.627l16.466-16.626c3.174-3.206 8.34-3.206 11.514 0l.144.144c3.174 3.206 3.174 8.422 0 11.628zm-10.641-10.746c-2.614 2.64-2.614 6.934 0 9.574l.144.146c2.613 2.638 6.866 2.638 9.481 0l8.479-8.563-9.625-9.719zm26.09-16.482-.143-.144c-1.307-1.32-3.025-1.98-4.742-1.98s-3.432.659-4.74 1.979l-6.969 7.038 9.625 9.719 6.969-7.038c2.614-2.639 2.614-6.934 0-9.574zm-23.075 30.854c1.784 0 3.235 1.465 3.235 3.267 0 1.801-1.451 3.267-3.235 3.267s-3.236-1.466-3.236-3.267c0-1.802 1.452-3.267 3.236-3.267zm0 5.082c.991 0 1.797-.814 1.797-1.815s-.806-1.815-1.797-1.815-1.798.814-1.798 1.815.807 1.815 1.798 1.815zm11.504-7.987c1.784 0 3.236 1.465 3.236 3.267 0 1.803-1.452 3.268-3.236 3.268s-3.235-1.465-3.235-3.268c0-1.802 1.451-3.267 3.235-3.267zm0 5.083c.991 0 1.798-.815 1.798-1.816s-.807-1.814-1.798-1.814-1.797.813-1.797 1.814.806 1.816 1.797 1.816zm14.74-14.522c5.154 0 9.347 4.234 9.347 9.439s-4.193 9.439-9.347 9.439-9.347-4.234-9.347-9.439 4.193-9.439 9.347-9.439zm0 17.426c3.869 0 7.092-2.823 7.772-6.534h-15.544c.679 3.711 3.903 6.534 7.772 6.534zm7.909-7.987c0-4.404-3.548-7.987-7.909-7.987s-7.909 3.583-7.909 7.987z" fill="#fcd139" fill-rule="evenodd"/></svg>