<svg height="31" viewBox="0 0 40 31" width="40" xmlns="http://www.w3.org/2000/svg"><path d="m324.532 4350.01a6.5 6.5 0 1 0 -6.466-6.5 6.479 6.479 0 0 0 6.466 6.5zm-4.009-7.37h5.043l-1.336-1.34 1.207-1.21 3.406 3.42-3.406 3.42-1.207-1.21 1.336-1.35h-5.043zm-25.088-2.47 8.4-7.92-8.362-7.15a1.071 1.071 0 0 1 1.379-1.64l11.725 9.96 11.725-9.96a1.072 1.072 0 0 1 1.38 1.64l-8.363 7.15 5.388 5.07a7.623 7.623 0 0 0 -1.379 1.68l-5.647-5.37-2.414 2.08a1.021 1.021 0 0 1 -.69.26.95.95 0 0 1 -.69-.26l-2.37-2.08-8.579 8.15a1.029 1.029 0 0 1 -.733.3 1.066 1.066 0 0 1 -.775-.35 1.1 1.1 0 0 1 .005-1.56zm20.95 5.76h-20.994a4.422 4.422 0 0 1 -4.4-4.41v-18.11a4.422 4.422 0 0 1 4.4-4.41h26.382a4.423 4.423 0 0 1 4.4 4.41v11.78a7.143 7.143 0 0 0 -1.681-.17 1.733 1.733 0 0 0 -.474.04v-11.65a2.259 2.259 0 0 0 -2.242-2.25h-26.385a2.261 2.261 0 0 0 -2.241 2.25v18.11a2.259 2.259 0 0 0 2.241 2.25h20.649a9.036 9.036 0 0 0 .345 2.16z" fill="#1c294b" fill-rule="evenodd" transform="translate(-291 -4319)"/></svg>