<svg height="13" width="9" xmlns="http://www.w3.org/2000/svg"><path d="m4.486 6.025c-.581 0-1.215-.288-1.529-1.086-.046-.126-.043-.381-.043-.404v-.358c0-1.017.868-1.479 1.623-1.479.929 0 1.647.74 1.647 1.664s-.768 1.663-1.698 1.663m4.313-2.784c-.047-.173-.141-.358-.211-.519-.836-1.999-2.663-2.715-4.138-2.715-1.974 0-4.148 1.317-4.439 4.031v.554c0 .024.008.231.019.336.163 1.294 1.189 2.667 1.955 3.962.825 1.386 1.68 2.75 2.528 4.112.524-.889 1.044-1.789 1.555-2.657.139-.254.301-.507.44-.75.092-.161.271-.323.352-.474.824-1.501 2.152-3.014 2.152-4.505v-.612c0-.162-.202-.728-.213-.763" fill="#1c294b" fill-rule="evenodd"/></svg>