<svg height="44" viewBox="0 0 47 44" width="47" xmlns="http://www.w3.org/2000/svg"><path d="m328.724 1748.33v12.88a.776.776 0 1 0 1.552 0v-12.88a.776.776 0 1 0 -1.552 0zm11.364-3.25a.781.781 0 0 0 -.776-.79h-19.624a.785.785 0 0 0 0 1.57h19.624a.779.779 0 0 0 .776-.78zm-5.928-22.42a4.6 4.6 0 1 0 -4.6 4.66 4.637 4.637 0 0 0 4.6-4.66zm-7.656 0a3.052 3.052 0 1 1 3.052 3.09 3.071 3.071 0 0 1 -3.056-3.09zm-3.151 11.12v7.96a.776.776 0 1 0 1.552 0v-7.96a3.34 3.34 0 0 1 3.307-3.36h2.571a3.329 3.329 0 0 1 3.287 2.96 3.435 3.435 0 0 1 .025.4v7.99a.776.776 0 1 0 1.552 0v-7.99a5.289 5.289 0 0 0 -.034-.57 4.887 4.887 0 0 0 -4.83-4.36h-2.571a4.9 4.9 0 0 0 -4.859 4.93zm25.07-6.35a4.635 4.635 0 1 0 4.577 4.63 4.611 4.611 0 0 0 -4.577-4.63zm0 7.7a3.065 3.065 0 1 1 3.025-3.07 3.052 3.052 0 0 1 -3.025 3.07zm.328 2.6h-1.059a4.271 4.271 0 0 0 -4.235 4.29v5.93h-2.489a4.683 4.683 0 0 0 -4.648 4.71v7.37a1.951 1.951 0 0 0 1.936 1.96h3.144a1.95 1.95 0 0 0 1.935-1.96v-4.72h5.117a4.58 4.58 0 0 0 4.54-4.6v-8.69a4.272 4.272 0 0 0 -4.241-4.29zm2.683 12.98a3 3 0 0 1 -2.988 3.02h-5.893a.788.788 0 0 0 -.776.79v5.51a.39.39 0 0 1 -.383.39h-3.139a.39.39 0 0 1 -.383-.39v-7.37a3.123 3.123 0 0 1 3.1-3.14h3.265a.781.781 0 0 0 .777-.79v-6.71a2.7 2.7 0 0 1 2.682-2.71h1.059a2.7 2.7 0 0 1 2.683 2.71v8.69zm-40.857-14.01a4.635 4.635 0 1 0 -4.577-4.64 4.612 4.612 0 0 0 4.577 4.64zm0-7.7a3.065 3.065 0 1 1 -3.025 3.06 3.044 3.044 0 0 1 3.025-3.06zm7.029 32.99h3.139a1.951 1.951 0 0 0 1.936-1.96v-7.37a4.683 4.683 0 0 0 -4.649-4.71h-2.489v-5.93a4.271 4.271 0 0 0 -4.235-4.29h-1.059a4.27 4.27 0 0 0 -4.234 4.29v8.69a4.579 4.579 0 0 0 4.539 4.6h5.117v4.72a1.95 1.95 0 0 0 1.935 1.96zm-7.052-8.26a3 3 0 0 1 -2.988-3.02v-8.69a2.7 2.7 0 0 1 2.682-2.71h1.059a2.7 2.7 0 0 1 2.683 2.71v6.71a.781.781 0 0 0 .776.79h3.265a3.123 3.123 0 0 1 3.1 3.14v7.37a.39.39 0 0 1 -.383.39h-3.14a.39.39 0 0 1 -.383-.39v-5.51a.788.788 0 0 0 -.776-.79h-5.892z" fill="#fefefe" fill-rule="evenodd" opacity=".5" transform="translate(-306 -1718)"/></svg>