<svg height="42" width="37" xmlns="http://www.w3.org/2000/svg"><path d="m32.915 16.888 1.571 20.912c.045 1.105-.314 2.166-1.078 2.962-.763.796-1.841 1.238-2.919 1.238h-.269c-1.123 0-2.156-.442-2.919-1.238-.763-.795-1.168-1.901-1.078-2.962l1.482-20.912c-2.425-1.326-4.087-4.465-4.087-8.002 0-4.775 3.009-8.665 6.692-8.665 3.682 0 6.691 3.89 6.691 8.665 0 3.537-1.617 6.676-4.086 8.002zm-2.56-15.385c-3.009 0-5.434 3.316-5.434 7.427 0 3.493 1.751 6.411 4.131 7.207l-1.571 21.795c-.135 1.504 1.122 2.83 2.694 2.83h.27c1.571 0 2.829-1.326 2.784-2.83l-1.572-21.795c2.38-.796 4.132-3.714 4.132-7.207 0-4.111-2.425-7.427-5.434-7.427zm-11.317 40.497h-.27c-1.122 0-2.155-.442-2.919-1.238-.763-.795-1.167-1.901-1.077-2.962l1.212-17.065c-1.033-.177-1.976-.708-2.694-1.504-.853-.972-1.213-2.254-1.033-3.537l1.841-11.937c.359-2.077 2.156-3.625 4.311-3.625 1.168 0 2.201.929 2.246 2.123l.628 11.096 1.752 24.449c.045 1.105-.315 2.167-1.078 2.962-.763.796-1.841 1.238-2.919 1.238zm.988-28.56-.629-11.097c0-.53-.449-.928-.988-.928-1.527 0-2.829 1.105-3.053 2.564l-1.842 11.937c-.314 1.945 1.213 3.669 3.189 3.669h.673l-1.302 18.347c-.135 1.504 1.123 2.83 2.694 2.83h.27c1.572 0 2.829-1.326 2.739-2.874zm-11.991 3.802 1.482 20.514c.045 1.105-.314 2.166-1.077 2.962-.764.795-1.842 1.238-2.919 1.238h-.27c-1.123 0-2.155-.443-2.919-1.238-.763-.796-1.167-1.901-1.078-2.962l1.482-20.47-1.167-1.105c-.988-.928-1.572-2.387-1.572-3.935v-1.149-.045l.224-9.018c.045-.973.719-1.813 1.662-1.99.135-.044.27-.044.404-.044.584 0 1.168.265 1.527.663.314-.31.674-.531 1.123-.619.135-.044.269-.044.404-.044.584 0 1.168.265 1.527.663.359-.398.943-.663 1.527-.663.134 0 .269 0 .404.044.943.221 1.662 1.017 1.662 1.99l.269 8.841v.133 1.194c0 1.548-.584 3.006-1.572 3.935zm1.438-4.952v-1.105l-.225-9.063c0-.398-.269-.707-.629-.796-.089 0-.134 0-.179 0-.449 0-.809.354-.809.796 0 0-.134 6.676-.179 8.577 0 .265-.27.486-.539.486-.314 0-.539-.221-.539-.486-.045-1.901-.18-8.577-.18-8.577 0-.442-.359-.796-.808-.796-.045 0-.135 0-.18 0-.359.089-.628.442-.628.796l-.18 8.533c0 .265-.269.486-.539.486-.314 0-.539-.221-.539-.486-.045-1.946-.179-8.577-.179-8.577 0-.443-.36-.796-.809-.796-.045 0-.134 0-.179 0-.36.088-.629.442-.629.796l-.225 9.019v1.193c0 1.194.449 2.343 1.168 3.051l1.572 1.503-1.527 21.088c-.135 1.504 1.123 2.83 2.694 2.83h.27c1.572 0 2.784-1.282 2.694-2.83l-1.527-21.088 1.572-1.503c.719-.708 1.168-1.857 1.168-3.051z" fill="#fcd139" fill-rule="evenodd"/></svg>