<svg height="27" width="27" xmlns="http://www.w3.org/2000/svg"><path d="m15.711 10-14.8 3.866c-.562.143-.9.721-.756 1.283.051.184.148.348.276.476l4.72 4.724-4.853 4.851c-.415.415-.415 1.084 0 1.493.414.415 1.079.415 1.493 0l4.853-4.851 4.72 4.724c.415.409 1.085.409 1.494 0 .158-.164.255-.358.296-.568l3.841-14.714c.143-.562-.194-1.135-.757-1.284-.179-.045-.358-.04-.527 0zm-6.433-6.702c-.409-.409-1.079-.409-1.493 0-.41.414-.41 1.084 0 1.493l2.986 2.986c.414.414 1.084.414 1.493 0 .415-.415.415-1.079 0-1.493zm11.435 11.432c-.415-.414-1.079-.414-1.494 0-.414.409-.414 1.078 0 1.493l2.987 2.986c.409.409 1.079.409 1.493 0 .409-.414.409-1.084 0-1.493zm-6.025-9.448c0 .583.471 1.058 1.054 1.058s1.059-.475 1.059-1.058v-4.223c0-.583-.476-1.054-1.059-1.054s-1.054.471-1.054 1.054zm7.027 4.913c-.583 0-1.053.475-1.053 1.058s.47 1.054 1.053 1.054h4.224c.583 0 1.054-.471 1.054-1.054s-.471-1.058-1.054-1.058zm-2.496-3.911c-.414.414-.414 1.084 0 1.493.415.414 1.079.414 1.494 0l2.986-2.986c.409-.409.409-1.079 0-1.493-.414-.409-1.084-.409-1.493 0zm-15.996 9.152 11.281-2.945-2.945 11.278z" fill="#1c294b" fill-rule="evenodd"/></svg>