<svg height="19" width="23" xmlns="http://www.w3.org/2000/svg"><path d="m7.817 18.297c8.231 0 12.732-6.876 12.732-12.839 0-.195-.004-.389-.013-.583.874-.637 1.634-1.432 2.232-2.337-.801.36-1.664.602-2.569.711.924-.559 1.633-1.442 1.967-2.496-.864.516-1.822.892-2.841 1.095-.817-.877-1.979-1.426-3.266-1.426-2.472 0-4.476 2.022-4.476 4.513 0 .354.04.698.117 1.028-3.72-.188-7.017-1.984-9.224-4.714-.385.667-.606 1.441-.606 2.268 0 1.565.79 2.947 1.991 3.756-.734-.023-1.424-.226-2.027-.564v.057c0 2.185 1.542 4.01 3.59 4.424-.376.103-.772.159-1.18.159-.288 0-.568-.028-.841-.082.57 1.793 2.221 3.098 4.18 3.135-1.531 1.21-3.461 1.931-5.558 1.931-.36 0-.717-.02-1.067-.062 1.98 1.279 4.332 2.026 6.859 2.026" fill="#fff" fill-rule="evenodd"/></svg>