<svg height="23" viewBox="0 0 39 23" width="39" xmlns="http://www.w3.org/2000/svg"><path d="m186.365 4344.01c-6.833 0-12.372-5.15-12.372-11.5s5.539-11.5 12.372-11.5a12.856 12.856 0 0 1 8.346 3.01l-3.646 3.32a7.57 7.57 0 0 0 -4.7-1.6 6.788 6.788 0 1 0 0 13.54 7.291 7.291 0 0 0 6.809-4.37h-6.965v-4.8h12.257a10.623 10.623 0 0 1 .272 2.4c0 6.35-5.538 11.5-12.373 11.5zm26.624-10.63h-4.307v4h-3.132v-4h-4.307v-2.91h4.307v-4h3.132v4h4.307z" fill="#1c294b" fill-rule="evenodd" transform="translate(-174 -4321)"/></svg>