<svg height="37" width="46" xmlns="http://www.w3.org/2000/svg" xmlns:xlink="http://www.w3.org/1999/xlink"><filter id="a"><feFlood flood-color="#fcd139" result="floodOut"/><feComposite in="floodOut" in2="SourceGraphic" operator="atop" result="compOut"/><feBlend in="compOut" in2="SourceGraphic" mode="normal"/></filter><g filter="url(#a)"><path d="m3.207 14.791 6.702-1.397c.387-.08.767.167.848.553.01.049.015.099.016.146l.002 21.463h24.448v-21.463c0-.396.322-.716.719-.716.071 0 .139.009.203.029l6.646 1.385 1.668-7.668-13.619-5.37c-.234 1.744-1.054 3.312-2.258 4.501-1.434 1.418-3.411 2.299-5.584 2.299-2.171 0-4.149-.881-5.584-2.299-1.202-1.189-2.023-2.757-2.257-4.501l-13.618 5.37zm26.205-13.21c-2.131.328-4.269.488-6.414.486-2.143-.002-4.282-.167-6.413-.489.193 1.419.861 2.695 1.841 3.664 1.171 1.159 2.791 1.878 4.572 1.878 1.782 0 3.401-.719 4.573-1.878.979-.968 1.648-2.243 1.841-3.661zm-13.441-1.551c2.35.402 4.694.609 7.027.611 2.342.002 4.693-.201 7.052-.616h.001l.015-.003c.125-.021.259-.01.387.04l15.101 5.954c.321.126.513.469.438.816l-1.948 8.954c-.085.384-.463.629-.848.549l-6.535-1.363v21.301c0 .395-.322.716-.719.716h-25.887c-.397 0-.719-.321-.719-.716v-21.301l-6.529 1.363c-.388.083-.77-.163-.854-.549l-1.943-8.93c-.087-.344.093-.707.433-.84l15.07-5.942c.09-.041.19-.063.295-.063.056 0 .111.007.163.019zm15.656 13.445c.397 0 .72.321.72.717 0 .395-.323.716-.72.716h-5.752c-.397 0-.719-.321-.719-.716 0-.396.322-.717.719-.717z" fill="#fcd139" fill-rule="evenodd"/></g></svg>