<svg height="10" width="20" xmlns="http://www.w3.org/2000/svg"><path d="m-.009 4.394c0-.249.198-.45.442-.45h11.154v-3.49c0-.158.081-.304.212-.386.132-.08.296-.087.433-.015l7.518 3.941c.146.075.239.228.24.395v.005c0 .163-.088.317-.231.395l-7.518 4.161c-.137.075-.304.071-.437-.009-.135-.081-.217-.229-.217-.386v-1.541c0-.249.198-.451.443-.451.244 0 .442.202.442.451v.783l6.131-3.393-6.131-3.213v3.203c0 .249-.198.45-.442.45h-11.597c-.244 0-.442-.201-.442-.45" fill="#a4a9ad" fill-rule="evenodd"/></svg>