<svg height="27" width="21" xmlns="http://www.w3.org/2000/svg"><path d="m18.757 26.996h-16.514c-1.237 0-2.243-1.075-2.243-2.398v-11.485c0-.588.2-1.127.529-1.544.157-.256.443-.544.958-.712.237-.092.49-.143.756-.143h.246 15.682.586c1.237 0 2.243 1.076 2.243 2.399v11.485c0 1.323-1.006 2.398-2.243 2.398zm.362-14.692c-.045-.113-.335-.281-.948-.281h-15.681c-.278 0-.486.035-.639.083-.118.053-.225.13-.317.224-.025.134.077.46.474.901l6.679 7.423c.438.487 1.021.755 1.643.755s1.206-.268 1.644-.755l6.678-7.423c.425-.472.512-.813.467-.927zm.658 1.538c-.074.096-.153.195-.244.296l-6.678 7.424c-.671.745-1.567 1.156-2.525 1.156-.957 0-1.854-.411-2.525-1.156l-6.582-7.316v10.351c0 .602.458 1.09 1.02 1.09h16.514c.562 0 1.02-.488 1.02-1.09zm-4.703-8.35 1.967-3.787 1.485.803-1.967 3.787zm-4.98-5.492h1.656v4.281h-1.656zm-6.727 2.612 1.439-.747 1.907 3.523-1.439.747z" fill="#1c294b" fill-rule="evenodd"/></svg>