<svg height="46" width="39" xmlns="http://www.w3.org/2000/svg"><path d="m37.853 44.034c-.915 1.067-2.435 1.607-4.516 1.61-.019 0-.04-.002-.061-.002-.021-.002-.042-.004-.063-.007-.157-.022-.292-.062-.407-.108-.477.174-1.32.353-2.799.385-.031.005-.06.007-.091.007-.001 0-.002 0-.002 0-.068 0-.134-.001-.199-.002-.094.001-.192.008-.287-.005-1.482-.032-2.326-.212-2.803-.385-.118.049-.259.088-.423.109-.031.005-.064.008-.097.008-5.128 0-5.389-3.263-5.389-3.919 0 0 0 0 0-.001 0-.076.003-.135.005-.173v-3.657c0-.893.104-1.383.315-1.714-.18-.266-.312-.605-.312-1.012v-2.454c0-.005 0-.008 0-.012.01-.803.115-1.262.315-1.577-.181-.267-.314-.606-.314-1.014v-.422c-.002-.019-.002-.036-.002-.055v-1.439c.007-.826.112-1.296.315-1.615-.181-.269-.314-.608-.314-1.015v-.132c-.002-.018-.002-.035-.002-.054v-1.638c.001-.012.001-.025.002-.037v-.075c0-.005 0-.01 0-.015.014-.763.118-1.205.313-1.512-.181-.266-.313-.605-.313-1.011v-.423c0-.002 0-.003 0-.005-.002-.016-.002-.032-.002-.049 0-.004 0-.008 0-.013v-1.329c0-.893.103-1.383.314-1.714-.18-.266-.312-.604-.312-1.012v-2.167c0-.013 0-.028.001-.043.01-.167.295-4.09 5.324-8.682 0-.009 0-.018 0-.027v-.001-.002c0-.001 0-.002 0-.003v-.001c0-.001 0-.002 0-.003 0 0 0-.001 0-.003v-.001s0 0 0-.001v-.001c0-.001 0-.001 0-.001v-.001c0-.001 0-.001 0-.001v-.001-.002c0-.001 0-.001 0-.001v-.003-.001c0-.001 0-.001 0-.001s0 0 0-.001v-.003-.001c0-.001 0-.001 0-.001 0-.001 0-.001 0-.001v-.502c-.282-.153-.473-.461-.473-.799 0-.082.013-.165.037-.245-.001-.015-.001-.03-.001-.044 0-.005 0-.011 0-.016v-2.585c0-.194.078-.38.216-.517.131-.129.879-.768 2.907-.881.01-.002.019-.003.029-.005.049-.009.096-.012.146-.012h1.609c.051-.001.099.003.148.012.008.002.017.003.026.005 2.001.111 2.756.736 2.902.877.136.131.221.316.221.521v2.6c0 .015-.001.029-.001.043.024.08.036.164.036.247 0 .337-.192.645-.472.799v.419.002.003.004.001.007.001.003.001.002.002.007.001.002.001.002.002.002.002.001.006.003.005.002.002.002.001.083c4.934 4.507 5.303 8.369 5.323 8.67 0 .012.002.023.002.035v.02.007 2.16c0 .367-.108.679-.261.931v.019c0 .043-.003.086-.012.128.185.329.275.812.275 1.647v1.344c0 .017 0 .034-.002.052v.424c0 .389-.122.715-.29.977-.005.015-.011.03-.017.046.191.304.292.745.307 1.499v.009.006.002.072c.001.012.002.025.002.037v.077 1.564c0 .019 0 .035-.002.054v.133c0 .388-.12.712-.287.973.01.041.019.083.023.127.171.318.259.774.266 1.53v.095 1.343c0 .019 0 .036-.002.055v.422c0 .38-.116.701-.28.959.011.047.017.094.019.144.166.311.253.757.262 1.488.001.003.001.006.001.01v.115.009 2.331c0 .37-.11.684-.265.938.001.017.002.033.002.05 0 .033-.003.065-.007.096.183.33.272.812.272 1.643v3.657c.003.038.006.097.007.167 0 .393-.084 1.406-.862 2.31zm-.592-29.63c-.026-.27-.472-3.786-5.079-7.889-.005-.006-.012-.012-.019-.017 0 0 0 0 0-.001-.075-.071-.131-.154-.169-.241-.037-.087-.057-.181-.057-.281 0-.002 0-.004 0-.005 0-.004 0-.008 0-.01 0-.029 0-.163 0-.341 0-.001 0-.001 0-.001 0-.004 0-.006 0-.009 0-.001 0-.001 0-.001 0-.003 0-.006 0-.009 0-.003 0-.003 0-.004v-.001c0-.001 0-.003 0-.003 0-.002 0-.002 0-.002v-.001s0 0 0-.001c0 0 0 0 0-.001s0-.003 0-.004 0 0 0-.002c0-.001 0-.001 0-.001 0-.001 0-.001 0-.001 0-.001 0-.003 0-.004s0-.001 0-.001c0-.002 0-.002 0-.002s0 0 0-.001 0-.001 0-.001c0-.001 0-.001 0-.001 0-.001 0-.001 0-.001s0 0 0-.001c0 0 0 0 0-.001v-.001c0-.002 0-.003 0-.003 0-.001 0-.001 0-.001v-.004c0-.001 0-.002 0-.002v-.001-.001-.001-.001c0-.001 0-.001 0-.001v-.001c0-.001 0-.001 0-.002 0-.001 0-.001 0-.001 0-.001 0-.002 0-.002v-.001s0 0 0-.002v-.001-.001s0 0 0-.001v-.001-.001c0-.001 0-.001 0-.001 0-.001 0-.002 0-.003s0-.001 0-.002v-.002c0-.001 0-.002 0-.003s0-.001 0-.003v-.001-1.054-.001c0-.014 0-.027.001-.039.006-.115.037-.222.09-.315.038-.069.086-.13.143-.182l.019-.102c.027-.135.091-.258.184-.356v-1.654c-.29-.132-.871-.32-1.871-.362-.032-.002-.061-.005-.091-.01h-1.393c-.031.005-.06.008-.091.01-1.001.042-1.581.23-1.871.362v1.654c.092.098.156.221.183.356l.02.105c.093.084.164.195.202.323.003.009.005.018.007.027.004.014.007.028.01.043.009.045.014.091.014.137h.001v1.141.001.004.002.001.004.002.002.001.001.001.002.002.001.001.002.003.002.003.002.003.001.001.003.001.001.001.002.002.001.001.001.001.002.001.003.001.003.001.002.002.001.003.001.002.003.001.007.007.001.271.011.005c-.001.099-.02.194-.058.281-.038.088-.093.17-.168.24 0 .001-.001.001-.001.001-.006.006-.012.011-.018.017-4.606 4.103-5.053 7.62-5.079 7.878v2.136c0 .092.036.166.081.225h14.929c.045-.058.081-.133.081-.225zm.002 4.874c0-.672-.067-.881-.089-.93-.013-.01-.035-.025-.053-.037-.034-.024-.074-.052-.118-.085h-14.578c-.043.033-.083.061-.117.085-.017.012-.04.027-.053.037-.022.049-.088.258-.088.93v1.286c.001.018.002.036.002.054v.479c0 .017.003.031.005.047h15.081c.003-.015.005-.03.005-.047v-.479c0-.018.002-.036.003-.054zm-15.096 13.642v2.253c0 .113.054.201.112.264h14.871c.058-.063.112-.151.112-.264v-2.253c-.001-.011-.001-.022-.001-.034v-.162c-.005-.46-.045-.671-.071-.763h-14.951c-.026.092-.066.303-.071.763v.162c0 .012-.001.023-.001.034zm.002-4.337v1.534c0 .215.201.345.244.369.016.009.03.018.045.027h14.513c.015-.008.028-.018.045-.027.041-.024.243-.154.243-.369v-1.534c0-.015.001-.029.001-.044v-.328c-.003-.414-.033-.635-.059-.747h-14.975c-.025.113-.056.335-.059.751v.323c.001.015.002.03.002.045zm15.09-3.011v-1.93c-.01-.53-.067-.705-.086-.749-.014-.011-.035-.026-.053-.038-.075-.051-.178-.122-.286-.232-.009-.009-.017-.02-.026-.03h-14.187c-.008.01-.016.021-.025.03-.109.109-.212.18-.287.232-.018.012-.039.028-.053.038-.019.044-.076.219-.086.749v1.93c0 .216.201.344.243.369.04.02.078.046.113.075h14.377c.036-.029.073-.055.113-.075.042-.025.243-.153.243-.369zm.01 16.088c-.001-.003-.001-.006-.001-.009-.002-.025-.004-.05-.004-.073 0-.013 0-.024.001-.035v-3.643c0-.673-.067-.881-.089-.929-.013-.011-.035-.026-.053-.038-.02-.015-.044-.03-.068-.049h-14.68c-.025.019-.049.034-.069.049-.017.012-.04.027-.053.038-.022.048-.088.256-.088.929v3.686c0 .026-.002.052-.004.078 0 .003-.001.028-.001.067v.001c.001 2.246 2.9 2.462 3.887 2.47.006-.002.013-.003.018-.004.116-.139.258-.244.441-.252.213-.01.38.037.52.191.143.063.78.304 2.489.335.028.002.051.003.077.004h.115.008.007.115c.025-.001.05-.004.077-.004 1.709-.031 2.347-.272 2.489-.335.14-.154.308-.201.52-.191.183.008.325.113.441.252.006.001.013.002.019.004 1.594-.009 2.761-.391 3.377-1.106.461-.536.511-1.133.511-1.365 0-.036-.002-.06-.002-.071zm-29.032 3.271c-1.303-.003-2.583-.336-3.714-.965-3.6-2.005-4.849-6.47-2.789-9.974l6.503-11.036 6.503 11.036c.647 1.1.989 2.346.992 3.614.009 4.036-3.347 7.316-7.495 7.325zm5.192-10.178-5.192-8.83-5.192 8.805c-1.022 1.773-1.022 3.937 0 5.71 1.62 2.813 5.277 3.814 8.166 2.236v.025c2.861-1.604 3.852-5.155 2.218-7.946zm-4.889 7.357v-1.471c1.512 0 2.999-1.349 2.999-3.066h1.512c0 2.453-1.991 4.537-4.511 4.537z" fill="#fcd139" fill-rule="evenodd"/></svg>