<svg height="17" width="24" xmlns="http://www.w3.org/2000/svg"><path d="m22.974 2.999c-.267-1.014-1.052-1.813-2.049-2.084-1.807-.493-9.054-.493-9.054-.493s-7.247 0-9.054.493c-.997.271-1.782 1.07-2.049 2.084-.484 1.838-.484 5.673-.484 5.673s0 3.836.484 5.674c.267 1.015 1.052 1.813 2.049 2.084 1.807.493 9.054.493 9.054.493s7.247 0 9.054-.493c.997-.271 1.782-1.069 2.049-2.084.484-1.838.484-5.674.484-5.674s0-3.835-.484-5.673zm-13.473 9.155v-6.964l6.057 3.482z" fill="#fff" fill-rule="evenodd"/></svg>