<svg height="18.25" viewBox="0 0 23.562 18.25" width="23.562" xmlns="http://www.w3.org/2000/svg"><path d="m343.188 369a3.822 3.822 0 1 0 -3.811-3.821 3.811 3.811 0 0 0 3.811 3.821zm-2.363-4.331h2.975l-.788-.79.712-.713 2.007 2.013-2.007 2.012-.712-.713.788-.79h-2.973v-1.019zm-14.785-1.449 4.954-4.662-4.929-4.2a.632.632 0 0 1 .813-.967l6.91 5.859 6.91-5.859a.632.632 0 1 1 .813.967l-4.928 4.2 3.175 2.981a4.5 4.5 0 0 0 -.813.993l-3.328-3.159-1.417 1.227a.622.622 0 0 1 -.407.153.574.574 0 0 1 -.406-.153l-1.4-1.223-5.056 4.789a.593.593 0 0 1 -.432.179.636.636 0 0 1 -.457-.2.647.647 0 0 1 -.002-.925zm12.347 3.388h-12.373a2.606 2.606 0 0 1 -2.591-2.6v-10.647a2.607 2.607 0 0 1 2.591-2.6h15.548a2.606 2.606 0 0 1 2.591 2.6v6.93a4.185 4.185 0 0 0 -.99-.1.969.969 0 0 0 -.28.025v-6.853a1.33 1.33 0 0 0 -1.321-1.325h-15.548a1.33 1.33 0 0 0 -1.321 1.325v10.647a1.329 1.329 0 0 0 1.321 1.324h12.169a5.313 5.313 0 0 0 .204 1.274z" fill="#c2cace" fill-rule="evenodd" transform="translate(-323.438 -350.75)"/></svg>