<svg height="17.031" viewBox="0 0 18 17.031" width="18" xmlns="http://www.w3.org/2000/svg"><path d="m216.148 349.843a1.884 1.884 0 0 1 -2.076 1.845 1.855 1.855 0 1 1 2.076-1.845zm-3.975 15.174v-11.872h3.849v11.872zm6.152-8.085c0-1.481-.05-2.718-.1-3.787h3.342l.178 1.651h.075a4.492 4.492 0 0 1 3.824-1.919c2.533 0 4.432 1.628 4.432 5.124v7.016h-3.85v-6.58c0-1.529-.557-2.573-1.95-2.573a2.1 2.1 0 0 0 -1.974 1.384 2.543 2.543 0 0 0 -.127.923v6.846h-3.85z" fill="#c2cace" fill-rule="evenodd" transform="translate(-212.063 -348)"/></svg>