<svg height="51" viewBox="0 0 36 51" width="36" xmlns="http://www.w3.org/2000/svg"><path d="m39.032 1724.63a7.315 7.315 0 1 0 -7.23-7.32 7.281 7.281 0 0 0 7.23 7.32zm0-12.99a5.67 5.67 0 1 1 -5.6 5.67 5.648 5.648 0 0 1 5.6-5.67zm17.162 33.66h-1.961v-4.84a3.357 3.357 0 0 0 -2.185-3.16v-3.61c0-4.54-2.659-8.5-6.467-9.62a.791.791 0 0 0 -.894.32 6.385 6.385 0 0 1 -11-.09.8.8 0 0 0 -.864-.34c-3.941.97-6.8 5.06-6.8 9.73v3.6a3.315 3.315 0 0 0 -1.278.79 3.417 3.417 0 0 0 -.967 2.38v4.84h-1.966a.818.818 0 0 0 -.813.82v14.06a.821.821 0 0 0 .813.83h10.559a.787.787 0 0 0 .567-.24 1.965 1.965 0 0 0 .927.23h10.335a2.077 2.077 0 0 0 .89-.21.816.816 0 0 0 .544.22h10.56a.821.821 0 0 0 .813-.83v-14.06a.818.818 0 0 0 -.813-.82zm-3.587-4.84v4.84h-3.385v-4.84a1.688 1.688 0 0 1 .783-1.45c.03-.02.062-.03.092-.05a1.87 1.87 0 0 1 .22-.11c.055-.02.111-.03.168-.05a.8.8 0 0 1 .151-.03 1.335 1.335 0 0 1 .2-.02 1.1 1.1 0 0 1 .257 0 .063.063 0 0 0 .042.01 1.694 1.694 0 0 1 1.472 1.7zm-24.963-6.77c0-3.71 2.092-6.97 5.043-7.98a7.934 7.934 0 0 0 12.965.12c2.834 1.12 4.769 4.26 4.769 7.86v3.44c-.031 0-.06.02-.091.02a1.4 1.4 0 0 0 -.2.05c-.129.03-.256.07-.381.11l-.2.09a2.653 2.653 0 0 0 -.362.19 1.57 1.57 0 0 1 -.161.1 4.482 4.482 0 0 0 -.468.39 3.419 3.419 0 0 0 -.967 2.38v4.69h-1.127v-8.31a.813.813 0 1 0 -1.626 0v5.14h-11.613v-5.14a.813.813 0 1 0 -1.626 0v8.31h-1.189v-4.69a3.4 3.4 0 0 0 -.049-.55c-.005-.04-.01-.07-.016-.1a3.365 3.365 0 0 0 -.134-.49c-.013-.04-.027-.07-.041-.11a4.264 4.264 0 0 0 -.214-.45c-.012-.02-.028-.04-.041-.06-.076-.12-.161-.24-.253-.36a1.013 1.013 0 0 1 -.079-.1 4.009 4.009 0 0 0 -.324-.32c-.039-.03-.079-.07-.119-.1a4.49 4.49 0 0 0 -.37-.26l-.122-.06a2.24 2.24 0 0 0 -.339-.16l-.142-.06a3.16 3.16 0 0 0 -.433-.12.3.3 0 0 1 -.09-.02zm-2.245 6.77a1.748 1.748 0 0 1 .5-1.22 1.689 1.689 0 0 1 2.889 1.22v4.84h-3.388v-4.84zm6.159 18.9h-8.933v-12.42h6.949a.021.021 0 0 0 .021.01.02.02 0 0 0 .02-.01h1.942v12.42zm12.644-.01h-4.357v-7.41a.813.813 0 1 0 -1.626 0v7.41h-4.354a.8.8 0 0 1 -.638-.88v-12.49c0-.01 0-.01 0-.01v-2.34h11.611v2.41a.714.714 0 0 0 -.017.08v12.52a.74.74 0 0 1 -.621.71zm11.18.01h-8.934v-.63c.008-.09.017-.17.017-.26v-11.53h6.935a.021.021 0 0 0 .021.01.02.02 0 0 0 .02-.01h1.941z" fill="#fefefe" fill-rule="evenodd" opacity=".5" transform="translate(-21 -1710)"/></svg>